<svg width="119" height="83" viewBox="0 0 119 83" fill="none" xmlns="http://www.w3.org/2000/svg">
<path d="M41.0993 44.2548V0L52.4845 35.8106L41.0993 44.2548Z" fill="white"/>
<path d="M77.9006 44.2548V5.76984e-08L66.5155 35.8106L77.9006 44.2548Z" fill="white"/>
<path d="M59.502 57.8656L55.1713 44.2548H41.0993L59.502 57.8656Z" fill="white"/>
<path d="M59.502 57.8656L63.8328 44.2548H77.9047L59.502 57.8656Z" fill="white"/>
<path d="M0 66.2066H4.0854L6.52273 77.9037H6.92759L9.4917 66.2066H14.8448L17.4089 77.9037H17.8138L20.2511 66.2066H24.1607L20.7337 82.6197H14.7712L12.2848 71.3111H11.9045L9.39355 82.6197H3.43108L0.00408724 66.2066H0Z" fill="white"/>
<path d="M26.7003 79.1065H29.8737V69.7198H26.7003V66.2066H37.0303V69.7198H33.8569V79.1065H37.0303V82.6197H26.7003V79.1065Z" fill="white"/>
<path d="M40.0729 66.2066H44.0806V79.0569H51.5153V82.6239H40.0729V66.2066Z" fill="white"/>
<path d="M54.2634 66.2066H61.0397C65.988 66.2066 69.4886 69.3106 69.4886 74.4152C69.4886 79.5198 66.0902 82.6239 61.0397 82.6239H54.2634V66.2066ZM61.5223 79.0569C63.9064 79.0569 65.3787 77.1597 65.3787 74.4152C65.3787 71.6707 63.9064 69.7736 61.5223 69.7736H58.2752V79.0569H61.5223Z" fill="white"/>
<path d="M71.5456 74.4152C71.5456 69.3106 75.0462 65.8222 79.9699 65.8222C84.4888 65.8222 87.5805 68.4881 87.7359 72.361H83.6996C83.217 70.282 82.1006 69.4098 80.6038 69.4098H79.0825C77.1032 69.4098 75.5819 71.6666 75.5819 74.4111C75.5819 77.1556 77.1032 79.4123 79.0825 79.4123H80.6038C82.1006 79.4123 83.2661 78.5402 83.7527 76.4612H87.789C87.6377 80.2307 84.4888 83 79.8963 83C75.3038 83 71.5456 80.0778 71.5456 74.4069V74.4152Z" fill="white"/>
<path d="M94.1809 66.2066H100.802L106.106 82.6197H101.996L100.879 79.185H93.9764L92.86 82.6197H88.8768L94.1809 66.2066ZM99.7876 75.7999L98.0128 70.2861H96.8432L95.0683 75.7999H99.7876Z" fill="white"/>
<path d="M110.249 69.7736H105.476V66.2066H119V69.7736H114.256V82.6239H110.249V69.7736Z" fill="white"/>
</svg>
