<svg width="151" height="51" viewBox="0 0 151 51" fill="none" xmlns="http://www.w3.org/2000/svg">
<path d="M0.5 39.0041V0L10.661 31.5617L0.5 39.0041Z" fill="white"/>
<path d="M33.348 39.0041V0L23.1834 31.5617L33.348 39.0041Z" fill="white"/>
<path d="M16.924 51L13.0589 39.0041H0.5L16.924 51Z" fill="white"/>
<path d="M16.924 51L20.7891 39.0041H33.348L16.924 51Z" fill="white"/>
<path d="M44.2791 18.2762H47.9252L50.1004 28.5855H50.4618L52.7502 18.2762H57.5277L59.8162 28.5855H60.1775L62.3527 18.2762H65.8419L62.7834 32.742H57.462L55.243 22.7751H54.9035L52.6626 32.742H47.3412L44.2827 18.2762H44.2791Z" fill="white"/>
<path d="M68.1084 29.6456H70.9407V21.3726H68.1084V18.2762H77.3278V21.3726H74.4955V29.6456H77.3278V32.742H68.1084V29.6456Z" fill="white"/>
<path d="M80.0432 18.2762H83.62V29.6019H90.2553V32.7456H80.0432V18.2762Z" fill="white"/>
<path d="M92.7043 18.2762H98.752C103.168 18.2762 106.292 21.012 106.292 25.5109C106.292 30.0099 103.259 32.7456 98.752 32.7456H92.7043V18.2762ZM99.1826 29.6019C101.31 29.6019 102.624 27.9298 102.624 25.5109C102.624 23.0921 101.31 21.42 99.1826 21.42H96.2847V29.6019H99.1826Z" fill="white"/>
<path d="M108.132 25.5109C108.132 21.012 111.256 17.9374 115.65 17.9374C119.683 17.9374 122.443 20.2871 122.581 23.7004H118.979C118.548 21.8681 117.552 21.0994 116.216 21.0994H114.858C113.092 21.0994 111.734 23.0884 111.734 25.5073C111.734 27.9261 113.092 29.9151 114.858 29.9151H116.216C117.552 29.9151 118.592 29.1465 119.026 27.3141H122.629C122.494 30.6364 119.683 33.0771 115.585 33.0771C111.486 33.0771 108.132 30.5016 108.132 25.5036V25.5109Z" fill="white"/>
<path d="M128.333 18.2762H134.242L138.976 32.742H135.308L134.312 29.7148H128.151L127.155 32.742H123.6L128.333 18.2762ZM133.337 26.7313L131.753 21.8717H130.709L129.125 26.7313H133.337Z" fill="white"/>
<path d="M142.673 21.42H138.414V18.2762H150.484V21.42H146.25V32.7456H142.673V21.42Z" fill="white"/>
</svg>
